<mxfile host="app.diagrams.net" modified="2024-02-27T02:28:30.440Z" agent="Mozilla/5.0 (Windows NT 10.0; Win64; x64) AppleWebKit/537.36 (KHTML, like Gecko) Chrome/121.0.0.0 Safari/537.36" version="23.1.5" etag="LlGdDZv7mUhiLW2bAlFz" type="github">
  <diagram name="第 1 页" id="V6Wf8vCctmhzEl7cb85Y">
    <mxGraphModel>
      <root>
        <mxCell id="0" />
        <mxCell id="1" parent="0" />
      </root>
    </mxGraphModel>
  </diagram>
</mxfile>
